<?xml version="1.0" encoding="UTF-8"?>
<svg id="Camada_1" xmlns="http://www.w3.org/2000/svg" version="1.1" viewBox="0 0 1802.5 318.9">
  <defs>
    <style>
      .st0 {
        fill: #35efa3;
      }

      .st1 {
        fill: #fff;
      }
    </style>
  </defs>
  <g>
    <path class="st1" d="M436,243.4c-12.8,0-24.8-2.3-35.9-6.9-11.1-4.6-20.7-10.8-28.8-18.6-8.1-7.8-14.5-17-19.1-27.6-4.6-10.6-7-21.9-7-33.9s2.4-23.9,7.1-34.4c4.7-10.6,11.2-19.8,19.3-27.6,8.1-7.8,17.6-14,28.6-18.4s22.8-6.7,35.4-6.7,18.5,1.3,27,3.8c8.5,2.5,16.3,6.1,23.4,10.7,7.1,4.6,13.4,10.1,18.8,16.5,5.4,6.4,9.7,13.4,12.9,21.1l-15.7,6.2c-5.7-13.1-14.4-23.5-25.9-31.1-11.6-7.6-25-11.4-40.5-11.4s-19.9,1.8-28.9,5.5c-9,3.7-16.7,8.8-23.3,15.3-6.5,6.5-11.7,14.1-15.4,22.7-3.8,8.6-5.6,17.9-5.6,27.9s1.9,19.1,5.6,27.8c3.8,8.7,8.9,16.3,15.6,22.7,6.6,6.4,14.4,11.5,23.4,15.2,9,3.7,18.7,5.5,29.2,5.5,16,0,29.7-4,41.1-12.1,11.4-8.1,19.8-18.5,25.3-31.4l16,6.5c-3.4,7.6-7.7,14.7-13,21.2-5.3,6.5-11.5,12.1-18.5,16.8-7,4.7-14.8,8.3-23.4,10.9-8.6,2.6-17.8,3.9-27.7,3.9Z"/>
    <path class="st1" d="M612.4,243.4c-12.5,0-24.2-2.2-35.1-6.7-11-4.5-20.6-10.6-28.8-18.4-8.2-7.8-14.6-17-19.3-27.6-4.6-10.6-7-22-7-34.1s2.3-23.6,7-34.1c4.6-10.6,11.1-19.8,19.3-27.7,8.2-7.9,17.8-14.1,28.8-18.6s22.7-6.7,35.1-6.7,24.2,2.2,35.1,6.7,20.5,10.7,28.6,18.6c8.1,7.9,14.5,17.1,19.3,27.7,4.7,10.6,7.1,22,7.1,34.1s-2.4,23.6-7.1,34.1-11.2,19.8-19.3,27.6c-8.1,7.8-17.6,14-28.6,18.4-11,4.5-22.7,6.7-35.1,6.7ZM612.4,227.7c10.1,0,19.6-1.8,28.5-5.5s16.6-8.7,23.1-15.2c6.5-6.4,11.7-14,15.4-22.7,3.8-8.7,5.6-18,5.6-27.8s-1.9-19.3-5.6-27.9c-3.8-8.6-8.9-16.2-15.4-22.7-6.5-6.5-14.2-11.6-23.1-15.3-8.9-3.7-18.4-5.5-28.5-5.5s-19.9,1.8-28.8,5.5c-8.9,3.7-16.6,8.8-23.1,15.3-6.5,6.5-11.7,14.1-15.4,22.7-3.8,8.6-5.6,17.9-5.6,27.9s1.9,19.1,5.6,27.8c3.8,8.7,8.9,16.3,15.4,22.7,6.5,6.4,14.2,11.5,23.1,15.2s18.5,5.5,28.8,5.5Z"/>
    <path class="st1" d="M715.5,69.7h16.3v39.6c5.7-11.8,14.4-21.4,26.1-28.8,11.7-7.4,25.2-11.1,40.6-11.1s22.2,1.8,31.6,5.4c9.4,3.6,17.5,8.8,24.3,15.6,6.8,6.8,12.1,15,15.7,24.6,3.7,9.6,5.5,20.5,5.5,32.7v95.4h-16.9v-95.5c0-9.5-1.4-18.1-4.3-25.7-2.9-7.6-7-14.2-12.3-19.6-5.3-5.4-11.9-9.6-19.6-12.6-7.7-3-16.4-4.5-26.1-4.5s-17.5,1.6-25.3,4.8c-7.8,3.2-14.6,7.6-20.3,13.2-5.7,5.6-10.2,12.2-13.5,19.9-3.3,7.7-4.9,15.9-4.9,24.8v95.3h-16.9V69.7Z"/>
    <path class="st1" d="M875.3,69.7h29.3v-.3c0-12.4,1.3-23.1,4-31.9,2.7-8.8,6.9-16,12.6-21.5,5.7-5.5,13.2-9.6,22.4-12.2,9.2-2.6,20.4-3.9,33.6-3.9h3.6v37.1c-7.9,0-14.2.5-19,1.5-4.7,1-8.4,2.8-10.8,5.3-2.5,2.6-4.1,5.9-4.7,10.1-.7,4.1-1,9.4-1,15.7h35.6v35.9h-35.6v137.5h-40.6V105.5h-29.3v-35.9Z"/>
    <path class="st1" d="M992.7,27.3c0-7.5,2.3-13.6,6.8-18.2,4.5-4.6,10.7-7,18.4-7s14.1,2.3,18.5,7c4.4,4.6,6.7,10.7,6.7,18.2s-2.2,13.5-6.7,18.1c-4.4,4.5-10.6,6.8-18.5,6.8s-14.3-2.3-18.7-6.8c-4.3-4.5-6.5-10.6-6.5-18.1ZM997.7,69.7h40.3v173.4h-40.3V69.7Z"/>
    <path class="st1" d="M1140.9,243.4c-10.5,0-20.8-1.9-31-5.9-10.2-3.9-19.3-9.6-27.4-17-8.1-7.4-14.6-16.5-19.6-27.3-4.9-10.8-7.4-23-7.4-36.7s2.4-26.2,7.3-37c4.8-10.8,11.3-19.9,19.3-27.3,8-7.4,17.2-13.1,27.6-17,10.4-3.9,21-5.9,31.9-5.9s22,2.1,31.7,6.2c9.7,4.1,17.7,9.8,24,17v-22.9h40v173.4h-40v-24.6c-6.3,7.7-14.4,13.8-24.3,18.3-9.9,4.4-20.6,6.7-32,6.7ZM1147.4,206.6c7.5,0,14.4-1.3,20.7-3.9,6.3-2.6,11.8-6.2,16.3-10.9,4.5-4.6,8.2-10,10.8-16.1,2.7-6.1,4-12.7,4-19.8s-1.3-13.4-4-19.5c-2.7-6.1-6.3-11.5-10.8-16-4.5-4.5-10-8.1-16.3-10.7-6.3-2.6-13.2-3.9-20.7-3.9s-14.2,1.3-20.6,3.9c-6.4,2.6-12,6.1-16.7,10.6s-8.4,9.7-11.1,15.9c-2.7,6.1-4,12.7-4,19.8s1.3,13.7,4,19.9c2.7,6.2,6.4,11.6,11.1,16.1s10.3,8.1,16.7,10.7c6.4,2.6,13.3,3.9,20.6,3.9Z"/>
    <path class="st1" d="M1261.5,69.7h39.7v23.7c5.7-7.2,13-13,21.8-17.4,8.8-4.4,18.8-6.6,30.1-6.6,21.5,0,38.4,6.4,50.5,19.2,12.2,12.8,18.2,30.6,18.2,53.5v101h-40.6v-96.4c0-13.1-3.3-23.5-9.8-31.1-6.5-7.6-16.3-11.4-29.3-11.4s-21.1,4-28.9,11.9c-7.8,7.9-11.7,19.3-11.7,34.2v93h-40V69.7Z"/>
    <path class="st1" d="M1527.1,318.9c-7.9,0-15.6-1.6-23-4.9-7.4-3.3-14-7.5-19.7-12.6l23.1-13.9c3.4,2.8,6.7,5.1,9.9,7.1,3.3,2,7.5,3,12.6,3s8.2-.9,11.4-2.7c3.3-1.8,4.9-4,4.9-6.5,0-5.3-5.7-8-17.2-8h-14.8v-31.7c-10.9-1.8-20.9-5.3-29.9-10.7-9.1-5.3-17-11.9-23.7-19.7-6.7-7.8-12-16.7-15.7-26.7-3.8-10-5.6-20.6-5.6-31.9s2.3-24.5,7-35.4c4.6-11,11-20.6,19.1-28.8,8.1-8.2,17.6-14.6,28.6-19.3,11-4.6,22.8-7,35.4-7s18.8,1.3,27.4,4c8.6,2.7,16.5,6.4,23.6,11.1s13.3,10.4,18.7,16.9c5.3,6.5,9.7,13.7,13,21.6l-35.9,15.1c-4-9.5-10-17-18.2-22.7-8.2-5.6-17.6-8.5-28.3-8.5s-14.1,1.4-20.3,4.1c-6.2,2.8-11.7,6.5-16.3,11.3-4.6,4.7-8.3,10.3-10.8,16.7-2.6,6.4-3.9,13.3-3.9,20.6s1.3,13.9,3.9,20.3c2.6,6.4,6.2,12,10.8,16.7,4.6,4.7,10.1,8.5,16.5,11.3,6.3,2.8,13.1,4.1,20.5,4.1,11.3,0,20.9-3,28.9-9,8-6,14-13.8,17.9-23.3l35.9,15.4c-6.3,14.8-15.7,27.1-28.2,36.9-12.4,9.8-27.6,15.5-45.4,17v13.9c11.1,0,19.5,2.2,25.3,6.6,5.8,4.4,8.7,10.3,8.7,17.5s-1.2,8.7-3.6,12.7c-2.4,3.9-5.6,7.3-9.8,10-4.1,2.8-9,4.9-14.7,6.5-5.6,1.6-11.7,2.4-18.2,2.4Z"/>
    <path class="st1" d="M1706.2,243.4c-10.5,0-20.8-1.9-31-5.9-10.2-3.9-19.3-9.6-27.4-17-8.1-7.4-14.6-16.5-19.6-27.3-4.9-10.8-7.4-23-7.4-36.7s2.4-26.2,7.3-37c4.8-10.8,11.3-19.9,19.3-27.3,8-7.4,17.2-13.1,27.6-17,10.4-3.9,21-5.9,31.9-5.9s22,2.1,31.7,6.2c9.7,4.1,17.7,9.8,24,17v-22.9h40v173.4h-40v-24.6c-6.3,7.7-14.4,13.8-24.3,18.3-9.9,4.4-20.6,6.7-32,6.7ZM1712.7,206.6c7.5,0,14.4-1.3,20.7-3.9,6.3-2.6,11.8-6.2,16.3-10.9,4.5-4.6,8.2-10,10.8-16.1,2.7-6.1,4-12.7,4-19.8s-1.3-13.4-4-19.5c-2.7-6.1-6.3-11.5-10.8-16-4.5-4.5-10-8.1-16.3-10.7-6.3-2.6-13.2-3.9-20.7-3.9s-14.2,1.3-20.6,3.9c-6.4,2.6-12,6.1-16.7,10.6s-8.4,9.7-11.1,15.9c-2.7,6.1-4,12.7-4,19.8s1.3,13.7,4,19.9c2.7,6.2,6.4,11.6,11.1,16.1s10.3,8.1,16.7,10.7c6.4,2.6,13.3,3.9,20.6,3.9Z"/>
  </g>
  <g>
    <path class="st0" d="M157.4,137.6L0,273.5v27.3h59c9.4,0,17.1-7.7,17.1-17.1v-56.1c0-9.4,7.7-17.1,17.1-17.1h92.2c10.9,0,21.3-4.2,29.1-11.8l63.3-61.1h-120.4Z"/>
    <path class="st0" d="M157.4,29.3L0,165.2v27.3h59c9.4,0,17.1-7.7,17.1-17.1v-56.1c0-9.4,7.7-17.1,17.1-17.1h92.2c10.9,0,21.3-4.2,29.1-11.8l63.3-61.1h-120.4Z"/>
  </g>
</svg>